**ABCDEFGHIJKLMNOPQRSTUVWXYZabcdefghijklmnopqrstuvwxyz**************************
**PARASOLID !"#$%&'()*+,-./:;<=>?@[\]^_`{|}~0123456789**************************
**PART1;
MC=unknown;
MC_MODEL=unknown;
MC_ID=unknown;
OS=unknown;
OS_RELEASE=unknown;
FRU=Parasolid 37.0.209;
APPL=Onshape;
SITE=unknown;
USER=unknown;
FORMAT=text;
GUISE=transmit;
KEY=BTGapi::writeModels_.xmt;
FILE=BTGapi::writeModels_.xmt;
DATE=2025-06-30T21:09:25 (UTC);
**PART2;
SCH=SCH_3700209_36001;
USFLD_SIZE=0;
**PART3;
**END_OF_HEADER*****************************************************************
T51 : TRANSMIT FILE created by modeller version 370020923 SCH_3700209_36001_1300
6231 0 12 36 CCCI7 lattice222 0 CCCI4 mesh1006 0 I8 polyline1008 0 CCCCCCCDI5 ow
ner1040 0 CCCI16 boundary_lattice222 0 CCCI13 boundary_mesh1006 0 I17 boundary_p
olyline1008 0 CCCA16 index_map_offset0 0 1 dA9 index_map82 0 A17 node_id_index_m
ap82 0 A20 schema_embedding_map82 0 A5 child12 0 A14 lowest_node_id0 0 1 dA16 me
sh_offset_data206 0 Z1 1425 2 3 0 0 0 0 0 0 0 1e3 1e-8 0 4 5 1 0 1 2 6 0 7 8 9 0
 0 10 11 12 0 0 0 0 0 0 0 81 255 1 2 1405 13 1 14 0 0 0 15 70 11 CI9 list_type0
 0 1 uI10 notransmit0 0 1 lCCCDCCDI12 finger_index0 0 1 dI12 finger_block1012 0
 CZ3 0 4 T1 0 0 5 20 1 16 16 13 255 6 498 0 1 0 17 0 0 18 0 50 255 7 872 0 19 20
 0 0 +-.00356634688566206 -.0123706921465602 .0011 -1 0 0 0 0 1 30 255 8 882 0 2
1 22 0 0 +-.01836634688566205 -.0029116921465602 .0011 0 0 -1 29 255 9 823 0 23
 24 0 -.003566346885662065 .0120883078534398 -.0015 19 9 CCCCCCI5 frame230 0 CA5
 owner12 0 Z10 497 0 1 18 0 25 0 V0 16 255 11 833 26 ?27 0 28 29 0 0 1 18 255 12
 491 30 31 0 32 33 ?1 81 1 30 932 34 12 0 0 35 36 37 17 255 31 0 38 39 40 12 27
 11 0 41 -18 32 451 42 43 12 44 45 ?1 29 33 493 0 12 45 46 -.003566346885662065
 .0120883078534398 .0011 29 45 453 0 32 47 33 -.01836634688566205 -.042123692146
5602 .0011 29 46 832 0 48 33 49 -.01836634688566205 -.0029116921465602 -.0015 18
 48 808 36 50 51 52 46 ?1 29 49 831 0 51 46 53 -.02631634688566205 -.00291169214
6560195 -.0015 18 51 804 54 55 56 48 49 ?1 29 53 830 0 56 49 57 -.02631634688566
205 .0120883078534398 -.0015 18 56 800 58 59 60 51 53 ?1 29 57 829 0 60 53 61 -.
00573334688566207 -.0421236921465602 -.0015 18 60 796 62 63 64 56 57 ?1 29 61 82
8 0 64 57 65 -.01648021065966365 -.0421236921465602 -.0015 18 64 792 66 67 68 60
 61 ?1 29 65 827 0 68 61 69 -.00356634688566206 -.0421236921465602 -.0015 18 68
 788 70 71 72 64 65 ?1 29 69 826 0 72 65 73 -.00573334688566207 -.04248269214656
02 -.0015 18 72 784 74 75 76 68 69 ?1 29 73 825 0 76 69 24 -.01648021065966365 -
.0424826921465602 -.0015 18 76 780 77 78 79 72 73 ?1 29 24 824 0 79 73 9 -.01836
634688566205 -.0421236921465602 -.0015 18 79 776 80 81 23 76 24 ?1 81 1 80 937 3
4 79 0 0 54 42 82 17 81 0 83 84 85 79 43 86 0 87 +18 23 772 35 27 88 79 9 ?1 81
 1 35 931 34 23 0 0 58 30 89 17 27 0 90 91 92 23 31 11 0 40 +18 88 311 93 94 95
 23 96 ?1 81 1 93 934 34 88 0 0 36 54 97 17 94 0 98 99 100 88 50 21 0 101 -18 95
 391 102 103 104 88 105 ?1 29 96 313 0 88 106 105 -.01836634688566205 -.00291169
21465602 .0011 29 106 1124 0 107 108 96 -.02831634688566205 .00216438953668735 -
.0002917159973824945 29 105 393 0 95 96 109 -.00573334688566207 -.04212369214656
02 .0011 29 109 398 0 104 105 110 -.01648021065966365 -.0421236921465602 .0011 1
8 104 396 111 112 113 95 109 ?1 29 110 423 0 113 109 114 -.00356634688566206 -.0
421236921465602 .0011 18 113 421 115 116 117 104 110 ?1 29 114 428 0 117 110 47
 -.00573334688566207 -.0424826921465602 .0011 18 117 426 118 119 44 113 114 ?1 2
9 47 443 0 44 114 45 -.01648021065966365 -.0424826921465602 .0011 18 44 441 120
 121 32 117 47 ?1 81 1 120 942 34 44 0 0 77 74 122 17 121 0 123 124 125 44 78 12
6 0 127 -15 255 123 849 0 125 128 0 17 124 0 123 67 121 104 129 130 0 131 -17 12
5 0 123 121 67 76 132 133 0 134 +17 78 0 135 136 127 76 121 126 0 125 +16 126 83
5 137 ?78 138 139 140 0 0 1 17 127 0 135 78 119 44 141 142 0 129 +15 135 845 0 1
36 143 0 17 119 0 135 127 136 117 75 138 0 144 -17 141 0 145 146 129 117 127 142
 0 0 -16 142 206 147 ?127 148 149 150 0 0 1 17 129 0 145 141 131 44 124 130 0 0
 +15 145 1221 0 151 152 0 17 131 0 145 129 153 104 85 148 0 0 +16 130 196 154 ?1
29 149 155 156 0 0 1 81 1 154 974 34 130 0 0 157 158 159 16 149 201 160 ?144 142
 130 161 0 0 1 16 155 181 162 ?163 130 164 165 0 0 1 30 156 198 0 130 165 161 0
 +-.01648021065966365 -.0423031921465602 .0011 0 -1 0 30 165 183 0 155 166 156 0
 +-.00523334688566207 -.0421236921465602 .0011 1 0 0 30 161 203 0 149 156 150 0
 +-.00573334688566207 -.0423031921465602 .0011 0 -1 0 30 150 208 0 142 161 167 0
 +-.00714184688566207 -.0424826921465602 .0011 -1 0 0 30 167 223 0 148 150 168 0
 +-.01698021065966365 -.0421236921465602 .0011 1 0 0 16 148 221 169 ?131 170 142
 167 0 0 1 30 168 822 0 171 167 172 0 +-.00356634688566206 -.0123706921465602 -.
0015 0 1 0 16 171 762 173 ?40 174 175 168 0 0 1 30 172 821 0 174 168 176 0 +-.01
836634688566205 -.0190251921465602 -.0015 2153130574954925e-31 1 0 16 174 754 17
7 ?178 179 171 172 0 0 1 30 176 820 0 179 172 180 0 +-.02234134688566205 -.00291
16921465602 -.0015 -1 327306316222039e-30 0 16 179 750 181 ?182 183 174 176 0 0
 1 30 180 819 0 183 176 184 0 +-.02631634688566205 .0045883078534398 -.0015 0 1
 0 16 183 746 185 ?186 187 179 180 0 0 1 30 184 818 0 187 180 188 0 +-.021898278
77266285 .0120883078534398 -.0015 1 -1963214952337155e-31 0 16 187 734 189 ?190
 191 183 184 0 0 1 30 188 817 0 191 184 192 0 +-.00523334688566207 -.04212369214
65602 -.0015 1 0 0 16 191 728 193 ?194 133 187 188 0 0 1 30 192 816 0 133 188 19
5 0 +-.01648021065966365 -.0423031921465602 -.0015 0 -1 0 16 133 724 157 ?125 19
6 191 192 0 0 1 30 195 815 0 196 192 197 0 +-.00573334688566207 -.04230319214656
02 -.0015 0 -1 0 16 196 720 198 ?199 200 133 195 0 0 1 30 197 814 0 200 195 201
 0 +-.00714184688566207 -.0424826921465602 -.0015 -1 0 0 16 200 712 158 ?134 202
 196 197 0 0 1 30 201 813 0 202 197 29 0 +-.01698021065966365 -.0421236921465602
 -.0015 1 0 0 16 202 706 203 ?84 204 200 201 0 0 1 30 29 873 0 11 201 205 0 +-.0
03566346885662065 .0120883078534398 .0011 0 0 -1 30 205 874 0 86 29 140 0 +-.018
36634688566205 -.0421236921465602 .0011 0 0 -1 16 86 834 206 ?81 139 21 205 0 0
 1 30 140 875 0 126 205 207 0 +-.01648021065966365 -.0424826921465602 .0011 0 0
 -1 30 207 876 0 138 140 208 0 +-.00573334688566207 -.0424826921465602 .0011 0 0
 -1 16 138 836 209 ?75 210 126 207 0 0 1 30 208 877 0 28 207 211 0 +-.0035663468
8566206 -.0421236921465602 .0011 0 0 -1 16 28 837 212 ?71 11 210 208 0 0 1 30 21
1 878 0 139 208 213 0 +-.01648021065966365 -.0421236921465602 .0011 0 0 -1 16 13
9 838 214 ?67 126 86 211 0 0 1 30 213 879 0 210 211 215 0 +-.00573334688566207 -
.0421236921465602 .0011 0 0 -1 16 210 839 216 ?63 28 138 213 0 0 1 30 215 880 0
 217 213 22 0 +-.02631634688566205 .0120883078534398 .0011 0 0 -1 16 217 840 218
 ?219 220 170 215 170 170 1 30 22 881 0 221 215 8 0 +-.02631634688566205 -.00291
1692146560195 .0011 0 0 -1 16 221 841 222 ?223 21 220 22 220 220 1 81 1 222 1389
 34 221 0 0 218 224 225 17 223 0 98 55 99 226 227 221 0 0 +16 21 842 228 ?50 86
 221 8 0 0 1 16 220 1226 229 ?55 221 217 22 221 221 1 81 1 229 1391 34 220 0 0 2
24 230 231 17 55 0 98 100 223 51 232 220 0 233 +15 98 857 0 100 234 0 17 100 0 9
8 94 55 48 182 179 0 178 -17 232 0 235 236 233 226 55 220 0 223 -17 233 0 235 23
2 59 51 186 183 0 182 -15 235 994 0 232 17 0 17 59 0 235 233 237 56 238 170 0 18
6 +17 186 0 239 190 182 56 233 183 0 91 +17 182 0 239 186 178 51 100 179 0 0 +15
 239 705 0 190 240 0 17 178 0 239 182 241 48 87 174 0 0 +17 241 0 239 178 132 79
 84 202 0 0 -17 87 0 242 43 50 79 178 174 0 241 -15 242 859 0 87 243 0 17 43 0 2
42 101 87 32 81 86 0 85 -17 50 0 242 87 101 48 94 21 0 100 +17 101 0 242 50 43 8
8 153 244 0 245 +17 153 0 145 131 245 32 101 244 0 0 -16 244 61 246 ?101 247 204
 248 0 0 1 17 245 0 145 153 151 88 99 247 0 0 -17 151 0 145 245 249 250 251 252
 0 99 -17 99 0 98 223 94 250 245 247 0 0 +16 247 66 253 ?99 164 244 254 0 0 1 81
 1 253 968 34 247 0 0 181 203 255 16 164 76 256 ?92 155 247 166 0 0 1 30 254 68
 0 247 248 166 0 +-.02234134688566205 -.0029116921465602 .0011 -1 32730631622203
9e-30 0 30 248 63 0 244 257 254 0 +-.01836634688566205 -.0190251921465602 .0011
 2153130574954925e-31 1 0 30 166 78 0 164 254 165 0 +-.02189827877266285 .012088
3078534398 .0011 1 -1963214952337155e-31 0 30 257 53 0 204 258 248 0 +-.00356634
688566206 -.0123706921465602 .0011 0 1 0 16 204 51 259 ?41 244 202 257 0 0 1 30
 258 1112 0 175 260 257 0 +-.02631634688566205 .00716438953668735 56e-5 0 -1 0 1
6 175 1031 261 ?262 171 263 258 0 0 1 30 260 1113 0 263 264 258 0 +-.02631634688
566205 .00716438953668735 -.00144 0 -1 0 16 263 1039 265 ?266 175 267 260 0 0 1
 30 264 1114 0 267 268 260 0 +-.02831634688566205 .00716438953668735 -.00144 0 -
1 0 16 267 1047 269 ?270 263 271 264 0 0 1 30 268 1115 0 271 272 264 0 +-.028316
34688566205 .00716438953668735 -.0002917159973824945 0 -1 0 16 271 1023 273 ?274
 267 275 268 0 0 1 30 272 1116 0 276 277 268 0 +-.02831634688566205 .00216438953
668735 -44e-5 0 0 -1 16 276 1058 278 ?279 280 281 272 0 0 1 30 277 1117 0 281 28
2 272 0 +-.02831634688566205 .00216438953668735 -.00144 1 0 0 16 281 1061 283 ?2
84 276 285 277 0 0 1 30 282 1118 0 285 286 277 0 +-.02631634688566205 .002164389
53668735 -44e-5 0 0 -1 16 285 1026 287 ?288 281 289 282 289 289 1 30 286 1119 0
 290 291 282 0 +-.02731634688566205 .00216438953668735 .0001341420013087522 -.92
0046508760259 0 -.391809164923512 16 290 1055 292 ?293 289 294 286 0 0 1 30 291
 1120 0 275 295 286 0 +-.02831634688566205 .00716438953668735 -44e-5 0 0 -1 16 2
75 1044 296 ?297 271 298 291 0 0 1 30 295 1121 0 298 299 291 0 +-.02831634688566
205 .00716438953668735 -.00144 1 0 0 16 298 1036 300 ?301 275 302 295 0 0 1 30 2
99 1122 0 302 303 295 0 +-.02631634688566205 .00716438953668735 -44e-5 0 0 -1 16
 302 1050 304 ?305 298 306 299 306 306 1 30 303 1123 0 280 307 299 0 +-.02731634
688566205 .00716438953668735 .0001341420013087522 -.920046508760259 0 -.39180916
4923512 16 280 1020 308 ?309 306 276 303 0 0 1 31 255 307 1356 0 252 310 303 0 +
-.0345692428635187 .0045883078534398 .0011 0 0 1 1 0 0 .01115169458070486 16 252
 1310 311 ?251 312 0 307 0 0 1 31 310 1358 0 294 313 307 0 +-.0345692428635187 .
0045883078534398 1e-4 0 0 1 1 0 0 .01115169458070486 16 294 1289 230 ?314 290 31
5 310 0 0 1 30 313 1359 0 315 0 310 0 +-.02631634688566205 .0045883078534398 1e-
4 0 1 0 16 315 1297 316 ?236 294 317 313 312 317 1 81 1 316 1401 34 315 0 0 318
 319 320 17 236 0 235 321 232 322 323 315 0 324 +16 317 1302 325 ?326 315 312 31
3 315 312 1 16 312 1305 319 ?237 317 252 313 317 315 1 81 1 319 1402 34 312 0 0
 316 0 327 17 237 0 235 59 328 329 330 312 0 238 +17 328 0 235 237 331 332 333 3
06 0 305 -18 329 1325 334 219 322 226 335 ?1 17 330 0 336 337 314 332 237 312 0
 326 -17 238 0 90 338 91 329 59 170 0 0 -15 90 853 0 91 339 0 17 338 0 90 92 238
 340 219 217 0 249 -17 91 0 90 238 27 56 190 187 0 0 -16 170 1231 224 ?59 217 14
8 215 217 217 1 81 1 224 1390 34 170 0 0 222 229 341 80 7 CCCCCDI12 legal_owners
0 17 1 lCZ1 34 342 343 9000 0 0 0 0 3 6 0 0 0 FFTFTFTTFFFFFFFFF1 82 255 3 341 50
 6 1 79 255 9 343 BTI/DetId17 190 0 239 344 186 23 91 187 0 0 +17 344 0 239 345
 190 68 40 171 0 0 -17 345 0 239 199 344 60 194 191 0 0 -17 40 0 38 31 71 23 344
 171 0 190 +15 38 861 0 40 19 0 17 71 0 38 40 39 68 116 28 0 194 +17 39 0 38 71
 31 113 41 204 0 163 -17 116 0 346 347 194 113 71 28 0 39 -17 194 0 346 116 63 6
8 345 191 0 344 +15 346 851 0 194 348 0 17 63 0 346 194 347 60 103 210 0 349 +17
 347 0 346 63 116 95 163 155 0 146 -17 103 0 350 144 349 95 63 210 0 347 -17 349
 0 350 103 75 60 199 196 0 345 -15 350 847 0 349 351 0 17 75 0 350 349 144 72 11
9 138 0 136 +17 199 0 239 134 345 72 349 196 0 0 +17 134 0 239 132 199 76 136 20
0 0 0 +17 132 0 239 241 134 64 125 133 0 0 -17 136 0 135 119 78 72 134 200 0 199
 -17 144 0 350 75 103 117 146 149 0 141 +17 146 0 145 163 141 95 144 149 0 0 -17
 163 0 145 41 146 113 347 155 0 0 +17 41 0 145 249 163 12 39 204 0 92 +17 249 0
 145 151 41 340 92 164 0 0 -17 92 0 90 27 338 12 249 164 0 0 +18 340 1323 352 25
1 226 250 353 ?1 81 1 352 1378 34 340 0 0 354 355 356 17 251 0 357 219 227 340 1
51 252 0 338 +18 226 1321 358 359 329 340 360 ?1 18 250 1318 355 227 340 0 361 ?
1 29 353 1364 0 340 361 362 -.02631634688566205 .0120883078534398 .0011 29 361 1
365 0 250 335 353 -.02631634688566205 -.002911692146560195 .0011 29 362 1363 0 3
22 353 363 -.02631634688566205 .00216438953668735 1e-4 18 322 1317 364 288 332 3
29 362 ?1 29 363 1362 0 332 362 365 -.02631634688566205 .00716438953668735 1e-4
 18 332 1316 354 330 366 322 363 ?1 29 365 1361 0 366 363 367 -.0263163468856620
5 .00216438953668735 56e-5 18 366 1315 368 262 369 332 365 ?1 29 367 1131 0 370
 365 371 -.02631634688566205 .00716438953668735 56e-5 18 370 1064 372 373 374 10
7 367 ?1 29 371 1130 0 374 367 375 -.02631634688566205 .00716438953668735 -.0014
4 18 374 1078 376 333 377 370 371 ?1 29 375 1129 0 377 371 378 -.028316346885662
05 .00716438953668735 -.00144 18 377 1070 379 380 52 374 375 ?1 29 378 1128 0 52
 375 381 -.02831634688566205 .00716438953668735 -.0002917159973824945 18 52 1074
 382 383 48 377 378 ?1 29 381 1126 0 369 378 108 -.02631634688566205 .0021643895
3668735 -.00144 18 369 1072 384 321 385 366 381 ?1 29 108 1125 0 385 381 106 -.0
2831634688566205 .00216438953668735 -.00144 18 385 1076 386 270 107 369 108 ?1 8
1 1 386 1077 34 385 0 0 382 387 388 17 270 0 389 390 297 385 380 267 0 391 +18 1
07 1066 392 274 370 385 106 ?1 81 1 392 1067 34 107 0 0 283 379 393 17 274 0 394
 395 309 107 383 271 0 293 +15 394 1083 0 395 396 0 17 395 0 394 397 274 366 293
 290 0 398 -17 309 0 394 274 397 52 399 280 0 400 +17 383 0 389 297 390 52 274 2
71 0 309 -17 293 0 401 279 398 107 395 290 0 390 +15 401 1103 0 293 402 0 17 279
 0 401 284 293 385 390 276 0 0 +17 398 0 401 293 324 366 288 285 0 0 -17 390 0 3
89 383 270 107 279 276 0 0 -15 389 1095 0 390 403 0 14 255 403 1092 404 ?405 406
 389 6 407 +0 0 405 406 25 81 1 404 1420 408 403 409 0 410 411 412 14 405 1096 4
11 ?402 403 413 6 414 +0 0 402 403 25 14 406 1088 410 ?403 396 415 6 416 +0 0 40
3 396 25 50 407 1109 0 403 417 416 0 +-.02831634688566205 .00716438953668735 -44
e-5 -1 0 0 0 0 1 13 25 883 0 0 0 0 0 0 10 17 14 17 856 418 ?152 0 235 6 419 +0 0
 152 0 25 81 1 418 1406 408 17 318 0 0 420 421 14 152 1 420 ?339 17 145 6 422 -0
 0 339 17 25 50 419 869 0 17 423 424 0 +-.02631634688566205 .0045883078534398 .0
011 -1 0 0 0 0 1 50 423 868 0 339 425 419 0 +-.02189827877266285 .01208830785343
98 .0011 1963214952337155e-31 1 0 -1 1963214952337155e-31 0 50 424 870 0 234 419
 20 0 +-.02234134688566205 -.0029116921465602 .0011 -327306316222039e-30 -1 0 1
 -327306316222039e-30 0 14 234 858 426 ?240 243 98 6 424 +0 0 240 243 25 50 20 8
71 0 243 424 7 0 +-.01836634688566205 -.0190251921465602 .0011 -1 21531305749549
25e-31 0 -2153130574954925e-31 -1 0 14 243 860 427 ?234 428 242 6 20 +0 0 234 42
8 25 81 1 427 1415 408 243 429 0 430 426 431 14 428 844 430 ?243 128 83 6 432 -0
 0 243 128 25 81 1 430 1414 408 428 433 0 434 427 435 14 128 850 434 ?428 143 12
3 6 436 -0 0 428 143 25 15 83 843 0 84 428 0 50 432 863 0 428 437 438 0 +-.01698
021065966365 -.0421236921465602 .0011 0 1 0 0 0 1 50 437 812 0 240 422 432 0 +0
 -693889390390723e-32 -.0015 0 0 -1 1 0 0 50 438 864 0 143 432 439 0 +-.00714184
688566207 -.0424826921465602 .0011 0 -1 0 0 0 -1 14 143 846 440 ?128 351 135 6 4
38 +0 0 128 351 25 50 439 865 0 351 438 436 0 +-.00573334688566207 -.04230319214
65602 .0011 1 0 0 0 0 -1 14 351 848 441 ?143 348 350 6 439 +0 0 143 348 25 50 43
6 866 0 128 439 425 0 +-.01648021065966365 -.0423031921465602 .0011 1 0 0 0 0 -1
 50 425 867 0 348 436 423 0 +-.00523334688566207 -.0421236921465602 .0011 0 1 0
 0 0 1 14 348 852 442 ?351 19 346 6 425 -0 0 351 19 25 81 1 442 1410 408 348 443
 0 444 441 445 14 19 862 444 ?348 339 38 6 7 -0 0 348 339 25 81 1 444 1409 408 1
9 446 0 447 442 448 14 339 854 447 ?19 152 90 6 423 +0 0 19 152 25 81 1 447 1408
 408 339 449 0 420 444 450 80 1 408 0 451 8001 0 0 0 0 3 5 0 0 0 FFFFTFTFFFFFFFF
FF2 81 1 449 979 34 339 0 447 160 452 453 81 1 420 1407 408 152 454 0 418 447 45
5 83 255 3 450 .917647058823529 .917647058823529 .917647058823529 81 1 454 1399
 34 152 0 420 456 318 457 83 3 455 .917647058823529 .917647058823529 .9176470588
23529 81 1 456 1398 34 458 0 459 460 454 461 81 1 318 1400 34 17 0 418 454 316 4
62 82 3 457 50 3 2 82 3 462 50 4 2 14 458 1331 459 ?463 402 464 6 465 +0 0 463 4
02 25 81 1 459 1423 408 458 456 0 466 467 468 81 1 460 1397 34 469 0 470 471 456
 472 82 3 461 50 2 2 14 469 1339 470 ?0 463 336 6 473 +0 0 0 463 25 81 1 470 142
5 408 469 460 0 467 0 474 81 1 471 1396 34 463 0 467 475 460 476 82 3 472 50 1 2
 14 463 1335 467 ?469 458 357 6 477 -0 0 469 458 25 81 1 467 1424 408 463 471 0
 459 470 478 81 1 475 1395 34 306 0 0 479 471 480 82 3 476 50 0 2 16 306 1241 47
5 ?333 302 280 299 302 302 1 81 1 479 1394 34 289 0 0 325 475 481 82 3 480 50 11
 1 16 289 1236 479 ?321 285 290 282 285 285 1 81 1 325 1393 34 317 0 0 230 479 4
82 82 3 481 50 10 1 81 1 230 1392 34 294 0 0 229 325 483 82 3 482 50 9 1 82 3 48
3 50 8 1 17 321 0 235 331 236 369 324 289 0 266 +17 331 0 235 328 321 374 266 26
3 0 0 -17 324 0 401 398 284 322 321 289 0 0 -17 266 0 415 391 301 369 331 263 0
 284 +15 415 1091 0 391 406 0 17 391 0 415 380 266 385 284 281 0 279 -17 301 0 4
15 266 380 374 484 298 0 331 +17 284 0 401 324 279 369 391 281 0 0 +17 380 0 415
 301 391 377 270 267 0 484 -17 484 0 413 400 333 377 301 298 0 297 -15 413 1099
 0 399 405 0 17 400 0 413 399 484 52 297 275 0 0 -17 333 0 413 484 305 374 328 3
06 0 301 +17 297 0 389 270 383 377 400 275 0 0 +17 305 0 413 333 399 332 373 302
 0 0 +17 399 0 413 305 400 370 309 280 0 0 -17 373 0 464 262 326 370 305 302 0 3
97 -15 464 1330 0 288 458 0 17 262 0 464 288 373 366 397 175 0 395 +17 326 0 464
 373 288 332 337 317 0 328 +17 397 0 394 309 395 370 262 175 0 399 -17 288 0 464
 326 262 322 398 285 0 337 +17 337 0 336 323 330 322 326 317 0 236 -15 336 1342
 0 323 469 0 17 323 0 336 314 337 226 236 315 0 232 -17 314 0 336 330 323 329 35
9 294 0 237 +17 359 0 357 227 219 226 314 294 0 323 -15 357 1338 0 251 463 0 17
 227 0 357 251 359 250 223 221 0 151 -17 219 0 357 359 251 329 338 217 0 314 +83
 3 478 .917647058823529 .917647058823529 .917647058823529 51 255 477 1350 0 463
 473 465 0 +-.0345692428635187 .0045883078534398 1e-4 0 0 1 .01115169458070486 1
 0 0 50 473 1352 0 469 0 477 0 +-.01494134688566206 -.0151971921465602 1e-4 0 0
 1 1 0 0 50 465 1349 0 458 477 414 0 +-.02631634688566205 .0045883078534398 1e-4
 1 0 0 0 0 -1 50 414 1111 0 405 465 417 0 +-.02731634688566205 .0071643895366873
5 -44e-5 0 1 0 -1 0 0 50 417 1110 0 402 414 407 0 +-.02731634688566205 .00216438
953668735 -44e-5 0 1 0 -1 0 0 14 402 1100 466 ?458 405 401 6 417 -0 0 458 405 25
 81 1 466 1422 408 402 485 0 411 459 486 81 1 485 1102 34 402 0 466 487 488 489
 81 1 411 1421 408 405 487 0 404 466 490 83 3 486 .917647058823529 .917647058823
529 .917647058823529 81 1 487 1098 34 405 0 411 409 485 491 83 3 490 .9176470588
23529 .917647058823529 .917647058823529 81 1 409 1094 34 403 0 404 492 487 493 8
2 3 491 45 2 2 81 1 492 1090 34 406 0 410 387 409 494 82 3 493 45 3 2 81 1 410 1
419 408 406 492 0 495 404 496 81 1 387 1082 34 396 0 495 386 492 497 82 3 494 45
 5 2 14 396 1080 495 ?406 240 394 6 498 +0 0 406 240 25 81 1 495 1418 408 396 38
7 0 499 410 500 82 3 497 45 0 2 81 1 499 1417 408 240 452 0 426 495 501 83 3 500
 .917647058823529 .917647058823529 .917647058823529 14 240 668 499 ?396 234 239
 6 437 +0 0 396 234 25 81 1 452 980 34 240 0 499 449 446 502 81 1 426 1416 408 2
34 503 0 427 499 504 83 3 501 .917647058823529 .917647058823529 .917647058823529
 81 1 503 985 34 234 0 426 429 433 505 83 3 504 .917647058823529 .91764705882352
9 .917647058823529 81 1 429 984 34 243 0 427 446 503 506 81 1 433 986 34 428 0 4
30 503 443 507 82 3 505 44 6 2 81 1 443 987 34 348 0 442 433 508 509 82 3 507 44
 7 2 81 1 508 988 34 128 0 434 443 510 511 82 3 509 44 8 2 81 1 434 1413 408 128
 508 0 440 430 512 81 1 510 989 34 143 0 440 508 513 514 82 3 511 44 9 2 81 1 44
0 1412 408 143 510 0 441 434 515 81 1 513 990 34 351 0 441 510 308 516 82 3 514
 44 10 2 81 1 441 1411 408 351 513 0 442 440 517 81 1 308 1022 34 280 0 0 513 27
3 518 82 3 516 44 11 2 81 1 273 1025 34 271 0 0 308 300 519 82 3 518 45 5 1 81 1
 300 1038 34 298 0 0 273 296 520 82 3 519 45 3 1 81 1 296 1046 34 275 0 0 300 26
9 521 82 3 520 45 11 1 81 1 269 1049 34 267 0 0 296 292 522 82 3 521 45 7 1 81 1
 292 1057 34 290 0 0 269 278 523 82 3 522 45 2 1 81 1 278 1060 34 276 0 0 292 28
3 524 82 3 523 45 4 1 81 1 283 1063 34 281 0 0 278 392 525 82 3 524 45 6 1 82 3
 525 45 10 1 83 3 517 .917647058823529 .917647058823529 .917647058823529 83 3 51
5 .917647058823529 .917647058823529 .917647058823529 83 3 512 .917647058823529 .
917647058823529 .917647058823529 81 1 446 983 34 19 0 444 452 429 526 82 3 506 4
4 5 2 82 3 526 44 4 2 82 3 502 44 1 2 50 498 1106 0 396 416 422 0 +-.02731634688
566205 .00716438953668735 .0001341420013087522 -.391809164923512 0 .920046508760
259 .920046508760259 0 .391809164923512 50 416 1108 0 406 407 498 0 +-.028316346
88566205 .00716438953668735 -.00144 0 0 -1 -1 0 0 50 422 3 0 152 498 437 0 +0 -6
93889390390723e-32 .0011 0 0 -1 1 0 0 83 3 496 .917647058823529 .917647058823529
 .917647058823529 81 1 488 1134 34 1 0 527 485 384 528 82 3 489 45 1 2 81 1 527
 1403 529 1 488 14 0 0 530 81 1 384 1137 34 369 0 0 488 376 531 82 3 528 44 0 3
 81 1 376 1138 34 374 0 0 384 265 532 82 3 531 46 2 0 81 1 265 1142 34 263 0 0 3
76 364 533 82 3 532 46 3 0 81 1 364 1376 34 322 0 0 265 354 534 82 3 533 46 3 1
 81 1 354 1377 34 332 0 0 364 352 535 82 3 534 50 0 0 82 3 535 50 1 0 80 1 529 5
36 537 8038 0 0 0 0 0 0 0 0 0 TTTTTTTTTTTTTFTFT10 81 1 14 1404 536 1 527 2 0 0 5
38 98 255 6 530 80 97 114 116 32 50 80 1 536 539 540 8017 0 0 0 0 0 0 0 0 0 TTTT
TTTTTTTTTFTFT3 84 255 6 538 Part 279 13 540 SDL/TYSA_NAME79 14 537 SDL/TYSA_UNAM
E83 3 474 .917647058823529 .917647058823529 .917647058823529 83 3 468 .917647058
823529 .917647058823529 .917647058823529 81 1 160 978 34 149 0 0 198 449 541 82
 3 453 44 0 2 81 1 198 977 34 196 0 0 147 160 542 82 3 541 44 29 1 81 1 147 976
 34 142 0 0 158 198 543 82 3 542 44 28 1 81 1 158 975 34 200 0 0 154 147 544 82
 3 543 44 27 1 82 3 544 44 26 1 79 15 451 SDL/TYSA_COLOUR83 3 448 .9176470588235
29 .917647058823529 .917647058823529 83 3 445 .917647058823529 .917647058823529
 .917647058823529 17 84 0 83 112 81 64 241 202 0 132 +17 112 0 83 85 84 104 67 1
39 0 124 -17 85 0 83 81 112 32 131 148 0 153 -17 67 0 123 125 124 64 112 139 0 8
4 +83 3 435 .917647058823529 .917647058823529 .917647058823529 83 3 431 .9176470
58823529 .917647058823529 .917647058823529 83 3 421 .917647058823529 .9176470588
23529 .917647058823529 83 3 412 .917647058823529 .917647058823529 .9176470588235
29 81 1 379 1071 34 377 0 0 392 382 545 82 3 393 45 6 0 81 1 382 1075 34 52 0 0
 379 386 546 82 3 545 45 5 0 82 3 546 45 7 0 82 3 388 45 4 0 81 1 372 1383 34 37
0 0 0 368 311 547 81 1 368 1382 34 366 0 0 358 372 548 81 1 311 1384 34 252 0 0
 372 261 549 82 3 547 50 7 0 81 1 261 1385 34 175 0 0 311 287 550 82 3 549 50 0
 1 81 1 287 1386 34 285 0 0 261 304 551 82 3 550 50 1 1 81 1 304 1387 34 302 0 0
 287 218 552 82 3 551 50 2 1 81 1 218 1388 34 217 0 0 304 222 553 82 3 552 50 3
 1 82 3 553 50 4 1 81 1 358 1381 34 226 0 0 334 368 554 82 3 548 50 6 0 81 1 334
 1380 34 329 0 0 355 358 555 82 3 554 50 5 0 81 1 355 1379 34 250 0 0 352 334 55
6 82 3 555 50 4 0 82 3 556 50 3 0 29 335 1366 0 329 360 361 -.02631634688566205
 .0120883078534398 1e-4 29 360 1367 0 226 0 335 -.02631634688566205 -.0029116921
46560195 1e-4 82 3 356 50 2 0 82 3 327 50 13 1 82 3 320 50 12 1 81 1 259 964 34
 204 0 0 173 177 557 81 1 173 963 34 171 0 0 185 259 558 81 1 177 965 34 174 0 0
 259 246 559 82 3 557 44 15 1 81 1 246 966 34 244 0 0 177 181 560 82 3 559 44 16
 1 81 1 181 967 34 179 0 0 246 253 561 82 3 560 44 17 1 82 3 561 44 18 1 81 1 18
5 961 34 183 0 0 256 173 562 82 3 558 44 14 1 81 1 256 960 34 164 0 0 189 185 56
3 82 3 562 44 12 1 81 1 189 959 34 187 0 0 216 256 564 82 3 563 44 11 1 81 1 216
 958 34 210 0 0 214 189 565 82 3 564 44 10 1 81 1 214 957 34 139 0 0 209 216 566
 82 3 565 44 9 1 81 1 209 956 34 138 0 0 137 214 567 82 3 566 44 8 1 81 1 137 95
5 34 126 0 0 212 209 568 82 3 567 44 7 1 81 1 212 954 34 28 0 0 206 137 569 82 3
 568 44 6 1 81 1 206 953 34 86 0 0 228 212 570 82 3 569 44 5 1 81 1 228 951 34 2
1 0 0 26 206 571 82 3 570 44 4 1 81 1 26 950 34 11 0 0 102 228 572 82 3 571 44 2
 1 81 1 102 948 34 95 0 0 62 26 573 82 3 572 44 1 1 81 1 62 947 34 60 0 0 111 10
2 574 82 3 573 44 19 0 81 1 111 946 34 104 0 0 66 62 575 82 3 574 44 18 0 81 1 6
6 945 34 64 0 0 118 111 576 82 3 575 44 17 0 81 1 118 944 34 117 0 0 74 66 577 8
2 3 576 44 16 0 81 1 74 943 34 72 0 0 120 118 578 82 3 577 44 15 0 82 3 578 44 1
4 0 81 1 203 969 34 202 0 0 253 169 579 82 3 255 44 19 1 81 1 169 970 34 148 0 0
 203 193 580 82 3 579 44 20 1 81 1 193 971 34 191 0 0 169 162 581 82 3 580 44 21
 1 81 1 162 972 34 155 0 0 193 157 582 82 3 581 44 22 1 81 1 157 973 34 133 0 0
 162 154 583 82 3 582 44 23 1 82 3 583 44 24 1 82 3 231 50 7 1 82 3 225 50 5 1 8
2 3 159 44 25 1 81 1 77 941 34 76 0 0 115 120 584 82 3 122 44 13 0 81 1 115 940
 34 113 0 0 70 77 585 82 3 584 44 12 0 81 1 70 939 34 68 0 0 42 115 586 82 3 585
 44 11 0 81 1 42 938 34 32 0 0 80 70 587 82 3 586 44 10 0 82 3 587 44 9 0 81 1 3
6 933 34 48 0 0 30 93 588 81 1 54 935 34 51 0 0 93 80 589 82 3 97 44 5 0 82 3 58
9 44 6 0 82 3 588 44 4 0 81 1 58 929 34 56 0 0 0 35 590 82 3 89 44 2 0 82 3 590
 44 0 0 82 3 82 44 8 0 82 3 37 44 3 0 19 18 884 0 1 0 10 6 0 S0 74 4 CI16 index_
map_offset0 0 1 dCCZ20 16 5 0 0 319 527 14 2 470 0 0 0 0 0 0 0 0 0 0 0 0 0 0 0 8
0 1 13 408 591 8040 0 0 0 0 3 5 0 0 0 TTTFFFFFFFFFFFFFF2 83 3 15 .91764705882352
9 .917647058823529 .917647058823529 79 17 591 SDL/TYSA_COLOUR_21 0 
